<svg version="1.2" xmlns="http://www.w3.org/2000/svg" viewBox="0 0 800 800" width="800" height="800"><style>.a{fill:#0a0a0a}</style><path class="a" d="m717.6 531c-5.3-9-20.3-23-57.6-16.4-20.7 3.7-41.7 5.4-62.7 4.4-77.7-3.4-148-39-197-94-43.3-48.4-70-111.4-70.3-179.4 0-38 7.3-74.6 22.3-109.3 14.7-33.7 4.3-51.3-3-58.7-7.7-7.6-25.7-18.3-61-3.6-136.3 57.3-220.7 194-210.7 340.3 10 137.7 106.7 255.3 234.7 299.7 30.7 10.6 63 17 96.3 18.3 5.4 0.3 10.7 0.7 16 0.7 111.7 0 216.4-52.7 282.4-142.4 22.3-31 16.3-50.6 10.6-59.6z"/></svg>