<svg version="1.2" xmlns="http://www.w3.org/2000/svg" viewBox="0 0 800 800" width="800" height="800"><style>.a{fill:#0a0a0a}.b{fill:#231f20}</style><path fill-rule="evenodd" class="a" d="m400 600.1c-110.6 0-200-89.4-200-200 0-110.6 89.4-200 200-200 110.6 0 200.1 89.4 200.1 200 0 110.6-89.5 200-200.1 200z"/><path fill-rule="evenodd" class="b" d="m150 400c0-27.7-22.4-50-50-50h-50c-27.6 0-50 22.3-50 50 0 27.6 22.4 50 50 50h50c27.6 0 50-22.4 50-50z"/><path fill-rule="evenodd" class="b" d="m152.6 576.7l-35.4 35.4c-19.6 19.6-19.6 51.2 0 70.7 19.5 19.6 51.1 19.6 70.7 0l35.4-35.4c19.5-19.5 19.5-51.1 0-70.7-19.6-19.5-51.2-19.5-70.7 0z"/><path fill-rule="evenodd" class="b" d="m400 650c-27.6 0-50 22.4-50 50v50c0 27.6 22.4 50 50 50 27.7 0 50-22.4 50-50v-50c0-27.7-22.4-50-50-50z"/><path fill-rule="evenodd" class="b" d="m647.5 576.8c-19.5-19.6-51.2-19.6-70.7-0.1-19.5 19.6-19.5 51.2 0 70.8l35.4 35.3c19.5 19.6 51.2 19.5 70.7 0 19.5-19.5 19.6-51.1 0-70.7z"/><path fill-rule="evenodd" class="b" d="m750.1 350l-50.1 0.1c-27.6-0.1-49.9 22.2-49.9 49.9-0.1 27.6 22.3 50 49.9 50h50c27.7 0.1 50-22.4 50-50 0-27.6-22.3-50-49.9-50z"/><path fill-rule="evenodd" class="b" d="m647.5 223.2l35.3-35.3c19.7-19.6 19.6-51.2 0-70.7-19.5-19.6-51.1-19.6-70.6-0.1l-35.4 35.5c-19.5 19.4-19.5 51 0 70.6 19.4 19.6 51.2 19.5 70.7 0z"/><path fill-rule="evenodd" class="b" d="m400 149.9c27.6 0.2 50-22.3 50-49.9v-50c0-27.7-22.3-50-50-50-27.6-0.1-50 22.3-50 49.9l0.1 50.1c-0.1 27.6 22.3 49.9 49.9 49.9z"/><path fill-rule="evenodd" class="b" d="m152.7 223.2c19.4 19.5 50.9 19.5 70.5-0.1 19.7-19.3 19.6-51.1 0.1-70.6l-35.3-35.3c-19.7-19.7-51.2-19.5-70.8 0-19.6 19.5-19.6 51.1-0.1 70.6z"/></svg>